<svg width="179" height="59" viewBox="0 0 179 59" fill="none" xmlns="http://www.w3.org/2000/svg">
<path d="M151.904 31V9.09589H157.995V31H151.904ZM147.812 14.1412V9.09589H157.687V14.1412H147.812ZM167.728 31.3692C166.169 31.3692 164.713 31.1128 163.359 30.6001C162.026 30.0668 160.898 29.3182 159.975 28.3543L163.821 24.5703C164.169 25.0625 164.703 25.4727 165.42 25.8009C166.138 26.1085 166.877 26.2623 167.635 26.2623C168.251 26.2623 168.794 26.1598 169.266 25.9547C169.758 25.7496 170.138 25.4522 170.404 25.0625C170.691 24.6728 170.835 24.2011 170.835 23.6474C170.835 23.0936 170.691 22.6219 170.404 22.2322C170.117 21.8425 169.707 21.5451 169.174 21.34C168.64 21.1349 168.005 21.0324 167.266 21.0324C166.856 21.0324 166.415 21.0632 165.943 21.1247C165.492 21.1657 165.144 21.2375 164.897 21.34L167.574 18.0175C168.292 17.8534 168.928 17.7201 169.481 17.6176C170.056 17.4945 170.558 17.433 170.989 17.433C172.096 17.433 173.091 17.6894 173.973 18.2021C174.855 18.7148 175.552 19.4532 176.065 20.4171C176.578 21.3606 176.834 22.4886 176.834 23.8012C176.834 25.2984 176.455 26.6212 175.696 27.7698C174.957 28.8978 173.901 29.7797 172.527 30.4155C171.173 31.0513 169.574 31.3692 167.728 31.3692ZM164.897 21.34V18.0483L169.727 12.3569L176.28 12.3877L171.296 18.0175L164.897 21.34ZM161.606 14.1412V9.09589H176.28V12.3877L171.758 14.1412H161.606Z" fill="#FF4BED"/>
<path d="M6.21656 56.2173V21.4955H13.9494V56.2173H6.21656ZM0.657035 38.2246V31.6543H19.5089V38.2246H0.657035ZM22.9161 56.2173V31.6543H30.6489V56.2173H22.9161ZM30.6489 42.7228L27.4142 40.1957C28.0544 37.3317 29.1326 35.1079 30.6489 33.5243C32.1651 31.9407 34.271 31.1489 36.9665 31.1489C38.1458 31.1489 39.1735 31.3342 40.0495 31.7048C40.9593 32.0418 41.7511 32.5809 42.425 33.3221L37.8257 39.1344C37.4888 38.7637 37.0676 38.4773 36.5622 38.2752C36.0568 38.073 35.484 37.9719 34.8438 37.9719C33.5634 37.9719 32.5358 38.3762 31.7608 39.1849C31.0195 39.9599 30.6489 41.1392 30.6489 42.7228ZM54.0538 56.7227C51.7963 56.7227 49.7746 56.1667 47.9888 55.0548C46.2368 53.9429 44.8384 52.4267 43.7939 50.5061C42.7831 48.5856 42.2777 46.3954 42.2777 43.9358C42.2777 41.4761 42.7831 39.286 43.7939 37.3654C44.8384 35.4449 46.2368 33.9286 47.9888 32.8167C49.7746 31.7048 51.7963 31.1489 54.0538 31.1489C55.7048 31.1489 57.1873 31.469 58.5014 32.1091C59.8492 32.7493 60.9442 33.6422 61.7866 34.7878C62.6289 35.8997 63.1007 37.1801 63.2017 38.629V49.2426C63.1007 50.6914 62.6289 51.9887 61.7866 53.1343C60.9779 54.2462 59.8997 55.1222 58.552 55.7624C57.2042 56.4026 55.7048 56.7227 54.0538 56.7227ZM55.6206 49.748C57.2716 49.748 58.6025 49.2089 59.6133 48.1307C60.6241 47.0188 61.1296 45.6205 61.1296 43.9358C61.1296 42.7902 60.8937 41.7794 60.422 40.9033C59.984 40.0273 59.3438 39.3534 58.5014 38.8817C57.6928 38.3762 56.7493 38.1235 55.6711 38.1235C54.5929 38.1235 53.6326 38.3762 52.7903 38.8817C51.9816 39.3534 51.3246 40.0273 50.8192 40.9033C50.3474 41.7794 50.1116 42.7902 50.1116 43.9358C50.1116 45.0477 50.3474 46.0417 50.8192 46.9177C51.2909 47.7938 51.9479 48.4845 52.7903 48.9899C53.6326 49.4953 54.576 49.748 55.6206 49.748ZM60.8263 56.2173V49.5964L61.9888 43.6325L60.8263 37.6687V31.6543H68.4075V56.2173H60.8263ZM76.9857 56.2173V30.5929C76.9857 28.4702 77.4237 26.5833 78.2997 24.9323C79.2095 23.2476 80.5067 21.9167 82.1914 20.9395C83.8761 19.9624 85.8641 19.4738 88.1553 19.4738C90.4465 19.4738 92.367 19.9456 93.917 20.889C95.4669 21.8324 96.6125 23.0454 97.3538 24.528C98.1287 26.0105 98.5162 27.611 98.5162 29.3294L92.5523 30.0875C92.5523 28.8408 92.2154 27.8637 91.5415 27.1561C90.8676 26.4485 89.9074 26.0947 88.6607 26.0947C87.3803 26.0947 86.4032 26.4485 85.7293 27.1561C85.0554 27.83 84.7185 28.7903 84.7185 30.037V56.2173H76.9857ZM71.5778 38.2246V31.6543H107.361V38.2246H71.5778ZM92.5523 56.2173V29.5821C92.5523 27.5604 92.9904 25.7578 93.8664 24.1742C94.7762 22.5569 96.0397 21.2933 97.657 20.3836C99.2743 19.4402 101.195 18.9684 103.419 18.9684C105.103 18.9684 106.569 19.2548 107.816 19.8276C109.096 20.3667 110.208 21.1249 111.152 22.102L106.3 26.9539C105.963 26.617 105.575 26.3643 105.137 26.1958C104.733 25.9937 104.244 25.8926 103.671 25.8926C102.627 25.8926 101.801 26.1958 101.195 26.8023C100.588 27.4088 100.285 28.2343 100.285 29.2788V56.2173H92.5523ZM111.462 56.2173V31.6543H119.195V56.2173H111.462ZM115.354 28.268C114.141 28.268 113.13 27.8637 112.321 27.055C111.546 26.2127 111.159 25.2018 111.159 24.0226C111.159 22.8096 111.546 21.7987 112.321 20.9901C113.13 20.1814 114.141 19.7771 115.354 19.7771C116.567 19.7771 117.56 20.1814 118.335 20.9901C119.11 21.7987 119.498 22.8096 119.498 24.0226C119.498 25.2018 119.11 26.2127 118.335 27.055C117.56 27.8637 116.567 28.268 115.354 28.268ZM136.517 56.7732C133.99 56.7732 131.699 56.2173 129.644 55.1054C127.588 53.9935 125.971 52.4604 124.792 50.5061C123.612 48.5519 123.023 46.3618 123.023 43.9358C123.023 41.4761 123.612 39.286 124.792 37.3654C126.005 35.4112 127.639 33.8781 129.694 32.7662C131.75 31.6543 134.058 31.0983 136.618 31.0983C138.539 31.0983 140.291 31.4353 141.875 32.1091C143.492 32.7493 144.924 33.7265 146.171 35.0405L141.218 39.9936C140.645 39.3534 139.971 38.8817 139.196 38.5784C138.455 38.2752 137.595 38.1235 136.618 38.1235C135.506 38.1235 134.512 38.3762 133.636 38.8817C132.794 39.3534 132.12 40.0273 131.615 40.9033C131.143 41.7457 130.907 42.7396 130.907 43.8852C130.907 45.0308 131.143 46.0417 131.615 46.9177C132.12 47.7938 132.811 48.4845 133.687 48.9899C134.563 49.4953 135.54 49.748 136.618 49.748C137.629 49.748 138.522 49.5795 139.297 49.2426C140.106 48.872 140.796 48.3666 141.369 47.7264L146.272 52.6794C144.991 54.0272 143.542 55.0548 141.925 55.7624C140.308 56.4363 138.505 56.7732 136.517 56.7732Z" fill="white"/>
</svg>
