<svg width="1685" height="246" viewBox="0 0 1685 246" fill="none" xmlns="http://www.w3.org/2000/svg">
    <path d="M0.318359 43.1866V6.679H191.154V43.1866H114.819V239H76.6524V43.1866H0.318359Z" fill="url(#paint0_linear_470_2118)"/>
    <path d="M217.614 239V6.679H318.839C346.275 6.679 368.069 13.7593 384.221 27.9198C400.373 42.0803 408.449 59.8916 408.449 81.3536C408.449 98.3905 403.139 113.436 392.518 126.49C382.119 139.323 367.516 148.063 348.709 152.709L406.789 239H361.985L307.223 156.028H255.781V239H217.614ZM255.781 119.521H318.839C352.028 119.521 368.622 106.798 368.622 81.3536C368.622 55.9089 352.028 43.1866 318.839 43.1866H255.781V119.521Z" fill="url(#paint1_linear_470_2118)"/>
    <path d="M428.505 239L488.244 6.679H582.832L644.231 239H604.405L588.474 179.26H481.607L466.672 239H428.505ZM491.563 142.753H579.182L552.962 43.1866H516.455L491.563 142.753Z" fill="url(#paint2_linear_470_2118)"/>
    <path d="M672.338 239V6.679H834.963V43.1866H710.505V109.564H808.412V146.072H710.505V239H672.338Z" fill="url(#paint3_linear_470_2118)"/>
    <path d="M864.859 239V6.679H1027.48V43.1866H903.026V109.564H1000.93V146.072H903.026V239H864.859Z" fill="url(#paint4_linear_470_2118)"/>
    <path d="M1057.38 239V6.679H1095.55V239H1057.38Z" fill="url(#paint5_linear_470_2118)"/>
    <path d="M1167.86 210.79C1143.96 187.558 1132.01 158.241 1132.01 122.84C1132.01 87.4382 1143.96 58.1215 1167.86 34.8894C1191.75 11.6573 1221.29 0.0412598 1256.47 0.0412598C1296.74 0.0412598 1328.16 14.2018 1350.73 42.5228C1360.69 54.692 1367.99 68.7419 1372.63 84.6725H1334.47C1330.48 75.8222 1324.95 67.8569 1317.87 60.7766C1301.72 44.6248 1281.25 36.5489 1256.47 36.5489C1231.47 36.5489 1211.11 44.5141 1195.41 60.4447C1179.7 76.3753 1171.84 97.1736 1171.84 122.84C1171.84 148.505 1179.7 169.304 1195.41 185.234C1211.11 201.165 1231.47 209.13 1256.47 209.13C1281.92 209.13 1302.83 200.28 1319.2 182.579C1326.5 175.056 1332.14 166.206 1336.13 156.028H1374.29C1368.54 173.286 1360.46 188.221 1350.06 200.833C1327.05 230.703 1295.86 245.638 1256.47 245.638C1221.29 245.638 1191.75 234.022 1167.86 210.79Z" fill="url(#paint6_linear_470_2118)"/>
    <path d="M1394.1 83.0131V39.8677L1437.25 6.679H1472.1V239H1433.93V53.1432L1394.1 83.0131Z" fill="url(#paint7_linear_470_2118)"/>
    <path d="M1505.31 172.623H1545.14C1546.69 179.482 1549.67 185.566 1554.1 190.876C1564.05 203.046 1578.21 209.13 1596.58 209.13C1611.85 209.13 1623.9 205.369 1632.75 197.846C1641.83 190.102 1646.36 180.588 1646.36 169.304C1646.36 156.471 1642.27 146.404 1634.08 139.102C1626.12 131.579 1614.72 127.818 1599.9 127.818H1543.48V94.6291L1613.17 44.846V43.1866H1516.93V6.679H1669.59V42.8547L1609.85 86.3319L1593.26 92.9697V94.6291L1598.57 93.9653C1605.87 93.3016 1610.19 92.9697 1611.51 92.9697C1632.31 92.9697 1649.68 100.161 1663.62 114.542C1677.56 128.924 1684.53 147.178 1684.53 169.304C1684.53 190.545 1676.34 208.577 1659.97 223.401C1643.6 238.226 1622.47 245.638 1596.58 245.638C1562.28 245.638 1536.95 233.469 1520.58 209.13C1513.5 198.731 1508.41 186.562 1505.31 172.623Z" fill="url(#paint8_linear_470_2118)"/>
    <defs>
        <linearGradient id="paint0_linear_470_2118" x1="946" y1="-217.5" x2="1384.36" y2="445.618" gradientUnits="userSpaceOnUse">
            <stop stop-color="#FF49CA"/>
            <stop offset="1" stop-color="#7D20F3"/>
        </linearGradient>
        <linearGradient id="paint1_linear_470_2118" x1="946" y1="-217.5" x2="1384.36" y2="445.618" gradientUnits="userSpaceOnUse">
            <stop stop-color="#FF49CA"/>
            <stop offset="1" stop-color="#7D20F3"/>
        </linearGradient>
        <linearGradient id="paint2_linear_470_2118" x1="946" y1="-217.5" x2="1384.36" y2="445.618" gradientUnits="userSpaceOnUse">
            <stop stop-color="#FF49CA"/>
            <stop offset="1" stop-color="#7D20F3"/>
        </linearGradient>
        <linearGradient id="paint3_linear_470_2118" x1="946" y1="-217.5" x2="1384.36" y2="445.618" gradientUnits="userSpaceOnUse">
            <stop stop-color="#FF49CA"/>
            <stop offset="1" stop-color="#7D20F3"/>
        </linearGradient>
        <linearGradient id="paint4_linear_470_2118" x1="946" y1="-217.5" x2="1384.36" y2="445.618" gradientUnits="userSpaceOnUse">
            <stop stop-color="#FF49CA"/>
            <stop offset="1" stop-color="#7D20F3"/>
        </linearGradient>
        <linearGradient id="paint5_linear_470_2118" x1="946" y1="-217.5" x2="1384.36" y2="445.618" gradientUnits="userSpaceOnUse">
            <stop stop-color="#FF49CA"/>
            <stop offset="1" stop-color="#7D20F3"/>
        </linearGradient>
        <linearGradient id="paint6_linear_470_2118" x1="946" y1="-217.5" x2="1384.36" y2="445.618" gradientUnits="userSpaceOnUse">
            <stop stop-color="#FF49CA"/>
            <stop offset="1" stop-color="#7D20F3"/>
        </linearGradient>
        <linearGradient id="paint7_linear_470_2118" x1="946" y1="-217.5" x2="1384.36" y2="445.618" gradientUnits="userSpaceOnUse">
            <stop stop-color="#FF49CA"/>
            <stop offset="1" stop-color="#7D20F3"/>
        </linearGradient>
        <linearGradient id="paint8_linear_470_2118" x1="946" y1="-217.5" x2="1384.36" y2="445.618" gradientUnits="userSpaceOnUse">
            <stop stop-color="#FF49CA"/>
            <stop offset="1" stop-color="#7D20F3"/>
        </linearGradient>
    </defs>
</svg>